<?xml version="1.0" encoding="iso-8859-1"?>
<!-- Generator: Adobe Illustrator 19.0.0, SVG Export Plug-In . SVG Version: 6.00 Build 0)  -->
<svg version="1.1" id="Layer_1" xmlns="http://www.w3.org/2000/svg" xmlns:xlink="http://www.w3.org/1999/xlink" x="0px" y="0px"
	 viewBox="0 0 496.2 496.2" style="enable-background:new 0 0 496.2 496.2;" xml:space="preserve">
<path style="fill:#48A1AF;" d="M248.1,0C111.1,0,0,111.1,0,248.1s111.1,248.1,248.1,248.1s248.1-111.1,248.1-248.1S385.1,0,248.1,0z
	"/>
<g>
	<path style="fill:#A3D5E0;" d="M394.8,382.8c-7.3-27.3-69.9-49.3-147.1-49.3s-139.1,22.1-146.4,49.3c-3.3,12.2-7,35.2-10.1,57.5
		c42.7,34.9,97.4,55.9,156.9,55.9s114.1-21,156.9-55.9C401.8,417.9,398.1,394.9,394.8,382.8z"/>
	<path style="fill:#A3D5E0;" d="M394.8,382.8c-4.8-17.9-33.4-33.6-74.3-42.2l18,96.6l64.4-10.7C400.3,408.9,397.4,392.4,394.8,382.8
		z"/>
	<path style="fill:#A3D5E0;" d="M101.4,382.8c-2.6,9.7-5.5,26.2-8.1,43.7l63.4,10.5l18-96.3C134.2,349.3,106.1,364.9,101.4,382.8z"
		/>
</g>
<g>
	<path style="fill:#E2A379;" d="M404.4,436.5l-64,10.7l5.4,28.9c21.4-9.2,41.3-21.3,59.1-35.9C404.8,439,404.6,437.8,404.4,436.5z"
		/>
	<path style="fill:#E2A379;" d="M91.8,436.5c-0.2,1.3-0.4,2.5-0.5,3.8c17.6,14.4,37.1,26.3,58.2,35.5l5.4-28.7L91.8,436.5z"/>
</g>
<g>
	<path style="fill:#779FA5;" d="M93.3,426.5c-0.5,3.3-1,6.7-1.5,10.1l63,10.5l1.9-10.1L93.3,426.5z"/>
	<path style="fill:#779FA5;" d="M402.9,426.5l-64.3,10.6l1.9,10.1l64-10.7C403.9,433.2,403.4,429.8,402.9,426.5z"/>
</g>
<path style="fill:#6F6E3A;" d="M330.5,340.3v112.8H165.7v-113c-9.1,1.6-17.6,3.5-25.6,5.5v125.7c32.7,15.8,69.3,24.7,108.1,24.7
	c38.7,0,75.4-8.9,108-24.7V345.8C348.2,343.7,339.6,341.9,330.5,340.3z"/>
<g>
	<circle style="fill:#424131;" cx="152.8" cy="452.4" r="7.3"/>
	<circle style="fill:#424131;" cx="343.4" cy="452.4" r="7.3"/>
</g>
<g>
	<path style="fill:#CC936D;" d="M287,282.1h-77.8c12.1,36.6,1,53.3,1,53.3s2.3,112.7,37.6,112.7S286,335.4,286,335.4
		S274.9,318.7,287,282.1z"/>
	<path style="fill:#CC936D;" d="M248.1,418.9l-5.3,28.5c1.6,0.5,3.2,0.8,4.9,0.8c2,0,3.8-0.4,5.6-1L248.1,418.9z"/>
</g>
<g>
	<path style="fill:#30302E;" d="M297.9,175.1l-107.6-5.7c-90.7,91.1-35.2,149.9-17.4,178.6c35.8,57.7-3.6,77.7-3.6,77.7l1.9-1
		c0,0,69.8-13.5,43.7-76.2C201.9,317.4,193.8,250.5,297.9,175.1z"/>
	<path style="fill:#30302E;" d="M322.8,348c17.8-28.7,73.3-87.5-17.4-178.6l-107.6,5.7c104.1,75.4,96,142.3,83,173.5
		c-26.2,62.7,43.7,76.2,43.7,76.2l1.9,1C326.4,425.7,287,405.7,322.8,348z"/>
</g>
<path style="fill:#BF8A3D;" d="M248.1,123.1c-92.6,0-168.3-8.9-168.3-8.9c0,4.5,11.1,33.4,11.3,33.9c3.8,9.8,38.6,63.2,157.1,63.2
	s152.4-53.3,157-62.9c0.2-0.5,11.4-29.7,11.4-34.1C416.4,114.2,340.7,123.1,248.1,123.1z"/>
<g>
	<path style="fill:#F4B382;" d="M248.1,61.6c-44,0-79.8,21.2-79.8,113.6c0,31.3,5.6,55.8,14,74.7c18.4,41.6,50.3,56.1,65.8,56.1
		s47.3-14.5,65.8-56.1c8.4-18.9,14-43.4,14-74.7C327.9,82.8,292.1,61.6,248.1,61.6z"/>
	<path style="fill:#F4B382;" d="M169.8,178c-7.6,1.3-13.4,4.6-9.1,29.7c4.3,25.2,9.6,26.3,17.3,25L169.8,178z"/>
	<path style="fill:#F4B382;" d="M326.5,178l-8.1,54.8c7.6,1.3,13,0.1,17.3-25C339.9,182.6,334.1,179.3,326.5,178z"/>
</g>
<path style="fill:#30302E;" d="M248.1,61.6c-57.3,0-82.7,25.1-82.7,117.5l9.5-7.9c45.8,0,84.9-26.9,113.2-52.3
	c12,33.1,42.7,60.1,42.7,60.1C330.8,86.7,305.4,61.6,248.1,61.6z"/>
<path style="fill:#9B7334;" d="M269.1,29.9c-7.8-2.1-14.4-3.1-21.8-3.1c-6.7,0-15.5,1.2-22.3,3.3c-8.9,0,8,11.5,23,11.5
	S276.4,29.9,269.1,29.9z"/>
<path style="fill:#D19743;" d="M269.1,27.7c-7.6,0-14.4,5.1-21.8,5.2c-6.7,0-13.8-5-22.3-5c-17.9,0-47.8,64.7-47.8,64.7H319
	C319,92.6,283.6,27.7,269.1,27.7z"/>
<path style="fill:#E2A84B;" d="M248.1,84.6c-92.6,0-168.3,30.8-168.3,30.8c0,4.5,11.3,34.3,11.3,33.9c0-1.1,83.6-7.1,157.1-7.1
	s157,7.4,157,7.4c0.2-0.5,11.4-29.7,11.4-34.1C416.4,115.4,340.7,84.6,248.1,84.6z"/>
<path style="fill:#CC785E;" d="M258.5,257.8c-3-0.4-10.4,2.5-10.4,2.5s-7.6-2.9-10.6-2.5c-4.8,0.7-16.1,4.6-16.1,6
	c0,0,14.2,9.6,26.7,9.6c12.5,0,26.7-9.6,26.7-9.6S263.4,258.5,258.5,257.8z"/>
<path style="fill:#C16952;" d="M254.2,264.4c-2-0.1-4.5,1.7-6.1,1.7c-1.9,0-4.8-1.8-7-1.6c-13.1,0.8-19.6-0.7-19.6-0.7
	s14.2,13.5,26.7,13.5c12.5,0,26.7-13.5,26.7-13.5S267.9,265.2,254.2,264.4z"/>
<g>
	<path style="fill:#30302E;" d="M174.8,183.1c-0.4-2.7-0.5-5.2-0.4-7.1c0.1-2.9,0.5-4.7,0.5-4.7l-9.4,3.5c0,1.4,0,2.9,0,4.3
		c0,0,0.9-0.3,2.5-0.9c1.3,2.2,2.9,5.6,4.5,10.5C172.4,188.8,176.1,191.5,174.8,183.1z"/>
	<path style="fill:#30302E;" d="M330.7,174.8l-9.3-6.2c0,0,0.4,4.5,0.5,7.4c0.1,2,0,4.4-0.4,7.1c-1.3,8.4,2.3,5.7,2.3,5.7
		c1.5-5,3.2-8.3,4.4-10.5c1.6,0.6,2.5,0.8,2.5,0.8C330.8,177.6,330.8,176.2,330.7,174.8z"/>
</g>
<g>
</g>
<g>
</g>
<g>
</g>
<g>
</g>
<g>
</g>
<g>
</g>
<g>
</g>
<g>
</g>
<g>
</g>
<g>
</g>
<g>
</g>
<g>
</g>
<g>
</g>
<g>
</g>
<g>
</g>
</svg>
